<?xml version="1.0" standalone="no"?>
<!DOCTYPE svg PUBLIC "-//W3C//DTD SVG 20010904//EN"
 "http://www.w3.org/TR/2001/REC-SVG-20010904/DTD/svg10.dtd">
<svg version="1.0" xmlns="http://www.w3.org/2000/svg"
 width="450.000000pt" height="450.000000pt" viewBox="0 0 450.000000 450.000000"
 preserveAspectRatio="xMidYMid meet">
<metadata>
Created by potrace 1.14, written by Peter Selinger 2001-2017
</metadata>
<g transform="translate(0.000000,450.000000) scale(0.100000,-0.100000)"
fill="#000000" stroke="none">
<path d="M2013 4474 c-838 -101 -1533 -625 -1838 -1384 -139 -347 -192 -726
-150 -1084 63 -535 291 -999 671 -1366 341 -328 744 -527 1229 -607 166 -27
506 -24 678 5 70 12 129 22 132 22 2 0 -4 15 -15 33 -30 51 -32 93 -11 247 18
135 18 147 3 170 -10 15 -17 47 -17 80 0 49 -7 68 -58 156 -50 88 -57 107 -56
150 2 67 -30 138 -73 160 -65 34 -185 131 -312 254 -197 191 -352 389 -456
582 -41 77 -42 78 -89 84 l-47 6 -23 67 c-12 36 -49 113 -81 171 -73 130 -95
211 -86 325 8 116 38 214 75 247 17 15 31 37 31 48 0 18 -7 20 -63 20 -80 0
-99 14 -122 90 l-18 60 30 93 c17 50 62 160 101 242 38 83 77 173 86 202 22
66 106 207 154 256 51 53 100 76 174 83 35 3 72 9 83 14 11 5 45 11 75 14 74
8 100 34 109 112 5 47 3 65 -12 91 -26 45 -20 114 11 128 18 8 22 18 22 58 0
59 21 112 62 155 l32 32 -60 -1 c-32 -1 -110 -7 -171 -15z"/>
<path d="M2506 4455 c9 -14 20 -25 25 -25 4 0 17 -10 29 -22 26 -29 27 -126 1
-183 -11 -25 -16 -54 -13 -77 3 -26 -3 -49 -19 -77 -12 -23 -26 -41 -31 -41
-4 0 -24 -26 -44 -57 -20 -31 -47 -65 -60 -76 -13 -10 -24 -25 -24 -33 0 -7
28 -28 61 -45 35 -17 63 -39 66 -50 3 -10 31 -34 62 -53 57 -35 124 -100 153
-147 36 -58 51 -125 58 -264 12 -226 34 -335 86 -430 46 -85 68 -159 79 -262
7 -60 8 -63 41 -73 18 -6 43 -25 55 -41 11 -16 27 -29 34 -29 8 0 23 -17 34
-38 10 -20 29 -57 41 -82 34 -66 38 -160 11 -231 -31 -82 -70 -129 -140 -170
-78 -46 -166 -65 -234 -50 -113 26 -193 86 -244 183 -25 47 -28 63 -28 148 0
80 4 102 23 138 36 67 99 129 162 160 l57 27 -54 120 c-72 158 -108 269 -143
444 -16 79 -31 145 -33 147 -2 2 -32 -14 -68 -35 -61 -37 -65 -42 -92 -112
-15 -41 -41 -104 -57 -142 -36 -81 -37 -94 -7 -118 13 -10 36 -44 50 -77 38
-84 110 -357 104 -396 -2 -17 2 -48 9 -69 19 -53 31 -126 54 -327 l21 -175 73
-155 c83 -174 106 -245 140 -446 21 -125 27 -145 62 -199 45 -70 49 -112 19
-240 -17 -76 -17 -83 -1 -150 10 -38 23 -81 29 -95 6 -14 12 -38 12 -55 1 -16
14 -70 29 -120 30 -100 31 -167 1 -225 -19 -38 -27 -39 125 17 679 248 1213
833 1394 1528 175 667 36 1374 -378 1925 -299 398 -752 699 -1232 819 -65 16
-153 34 -194 41 -41 6 -85 13 -98 16 -22 4 -22 4 -6 -21z"/>
</g>
</svg>
